<svg width="500" height="200" xmlns="http://www.w3.org/2000/svg">

  <rect  rx="10" ry="10" width="100" height="100" fill="black"/>  
 

  <!-- Points -->
  

  <!-- <g fill="white">
    <circle cx="50" cy="50" r="8" />
  </g>  -->
<!-- 
  <g fill="white">
    
    <circle cx="80" cy="20" r="8" />
    <circle cx="20" cy="80" r="8" />
    
  </g>  -->
<!-- 
   <g fill="white">
    
    <circle cx="80" cy="20" r="8" />
    <circle cx="50" cy="50" r="8" />
    <circle cx="20" cy="80" r="8" />
    
  </g>  -->

  <!-- <g fill="white">
    <circle cx="20" cy="20" r="8" />
    <circle cx="80" cy="20" r="8" />
    <circle cx="20" cy="80" r="8" />
    <circle cx="80" cy="80" r="8" />
  </g>  -->

  <!-- <g fill="white">
    <circle cx="20" cy="20" r="8" />
    <circle cx="50" cy="50" r="8" />
    <circle cx="80" cy="20" r="8" />
    <circle cx="20" cy="80" r="8" />
    <circle cx="80" cy="80" r="8" />
  </g>  -->

<!-- <g fill="white">
    <circle cx="20" cy="20" r="8" />
    <circle cx="50" cy="20" r="8" />
    <circle cx="80" cy="20" r="8" />
    <circle cx="20" cy="80" r="8" />
    <circle cx="50" cy="80" r="8" />
    <circle cx="80" cy="80" r="8" />
  </g> -->


 <rect x="120" rx="10" ry="10" width="100" height="100" fill="black"/>  
 

  <!-- Points -->
  <g fill="white">
    <circle cx="140" cy="20" r="8" />
    <circle cx="200" cy="20" r="8" />
    <circle cx="170" cy="50" r="8" />
    <circle cx="140" cy="80" r="8" />
    <circle cx="200" cy="80" r="8" />
  </g>

  <rect x="240" rx="10" ry="10" width="100" height="100" fill="black"/>  
 

 
</svg>
